{
  "accessors": [
    {
      "bufferView": 2,
      "componentType": 5126,
      "count": 431,
      "max": [
        0.9720189571380615,
        11.463112831115723,
        0.9720189571380615
      ],
      "min": [
        -0.9720189571380615,
        0.06335592269897461,
        -0.9720189571380615
      ],
      "type": "VEC3"
    },
    {
      "bufferView": 2,
      "byteOffset": 5172,
      "componentType": 5126,
      "count": 431,
      "max": [
        1.0,
        1.0,
        1.0
      ],
      "min": [
        -1.0,
        -1.0,
        -1.0
      ],
      "type": "VEC3"
    },
    {
      "bufferView": 1,
      "componentType": 5126,
      "count": 431,
      "max": [
        0.9944330453872681,
        0.9926804900169373
      ],
      "min": [
        0.023243427276611328,
        0.0033339112997055054
      ],
      "type": "VEC2"
    },
    {
      "bufferView": 0,
      "componentType": 5125,
      "count": 1692,
      "type": "SCALAR"
    },
    {
      "bufferView": 2,
      "byteOffset": 10344,
      "componentType": 5126,
      "count": 72,
      "max": [
        0.5436145663261414,
        7.19440221786499,
        0.5436145663261414
      ],
      "min": [
        -0.5436145663261414,
        5.821796894073486,
        -0.5436145663261414
      ],
      "type": "VEC3"
    },
    {
      "bufferView": 2,
      "byteOffset": 11208,
      "componentType": 5126,
      "count": 72,
      "max": [
        0.9945073127746582,
        1.0,
        0.9945073127746582
      ],
      "min": [
        -0.9952353239059448,
        -1.0,
        -0.9945073127746582
      ],
      "type": "VEC3"
    },
    {
      "bufferView": 1,
      "byteOffset": 3448,
      "componentType": 5126,
      "count": 72,
      "max": [
        0.875,
        1.0
      ],
      "min": [
        0.125,
        0.0
      ],
      "type": "VEC2"
    },
    {
      "bufferView": 0,
      "byteOffset": 6768,
      "componentType": 5125,
      "count": 144,
      "type": "SCALAR"
    }
  ],
  "asset": {
    "extras": {
      "author": "SunsetScorpion (https://sketchfab.com/sunsetscorpion)",
      "license": "CC-BY-4.0 (http://creativecommons.org/licenses/by/4.0/)",
      "source": "https://sketchfab.com/3d-models/wooden-torch-48e56d1bf89e46e7bcdccbbb997471f7",
      "title": "Wooden Torch"
    },
    "generator": "Sketchfab-12.66.0",
    "version": "2.0"
  },
  "bufferViews": [
    {
      "buffer": 0,
      "byteLength": 7344,
      "name": "floatBufferViews",
      "target": 34963
    },
    {
      "buffer": 0,
      "byteLength": 4024,
      "byteOffset": 7344,
      "byteStride": 8,
      "name": "floatBufferViews",
      "target": 34962
    },
    {
      "buffer": 0,
      "byteLength": 12072,
      "byteOffset": 11368,
      "byteStride": 12,
      "name": "floatBufferViews",
      "target": 34962
    }
  ],
  "buffers": [
    {
      "byteLength": 23440,
      "uri": "scene.bin"
    }
  ],
  "images": [
    {
      "uri": "textures/paper_lantern_mat_baseColor.png"
    }
  ],
  "materials": [
    {
      "doubleSided": true,
      "name": "paper_lantern_mat",
      "pbrMetallicRoughness": {
        "baseColorTexture": {
          "index": 0
        },
        "metallicFactor": 0.0,
        "roughnessFactor": 0.6
      }
    },
    {
      "doubleSided": true,
      "name": "Bandage_mat",
      "pbrMetallicRoughness": {
        "baseColorFactor": [
          0.5,
          0.398001,
          0.279,
          1.0
        ],
        "metallicFactor": 0.0,
        "roughnessFactor": 0.6
      }
    }
  ],
  "meshes": [
    {
      "name": "Torch_paper_lantern_mat_0",
      "primitives": [
        {
          "attributes": {
            "NORMAL": 1,
            "POSITION": 0,
            "TEXCOORD_0": 2
          },
          "indices": 3,
          "material": 0,
          "mode": 4
        }
      ]
    },
    {
      "name": "Torch_Bandage_mat_0",
      "primitives": [
        {
          "attributes": {
            "NORMAL": 5,
            "POSITION": 4,
            "TEXCOORD_0": 6
          },
          "indices": 7,
          "material": 1,
          "mode": 4
        }
      ]
    }
  ],
  "nodes": [
    {
      "children": [
        1
      ],
      "matrix": [
        0.7739821672439575,
        -1.40600282699052e-16,
        0.633207380771637,
        0.0,
        0.633207380771637,
        1.7185856454470406e-16,
        -0.7739821672439575,
        0.0,
        0.0,
        1.0,
        2.220446049250313e-16,
        0.0,
        -2.560690826047818e-10,
        -2.694554410347791e-26,
        1.2135194238371838e-10,
        1.0
      ],
      "name": "Sketchfab_model"
    },
    {
      "children": [
        2
      ],
      "matrix": [
        0.009999999776482582,
        0.0,
        0.0,
        0.0,
        0.0,
        0.0,
        0.009999999776482582,
        0.0,
        0.0,
        -0.009999999776482582,
        0.0,
        0.0,
        0.0,
        0.0,
        0.0,
        1.0
      ],
      "name": "05eae58b13f2412d852a56ae64717ade.fbx"
    },
    {
      "children": [
        3
      ],
      "name": "RootNode"
    },
    {
      "children": [
        4,
        5
      ],
      "name": "Torch"
    },
    {
      "mesh": 0,
      "name": "Torch_paper_lantern_mat_0"
    },
    {
      "mesh": 1,
      "name": "Torch_Bandage_mat_0"
    }
  ],
  "samplers": [
    {
      "magFilter": 9729,
      "minFilter": 9987,
      "wrapS": 10497,
      "wrapT": 10497
    }
  ],
  "scene": 0,
  "scenes": [
    {
      "name": "Sketchfab_Scene",
      "nodes": [
        0
      ]
    }
  ],
  "textures": [
    {
      "sampler": 0,
      "source": 0
    }
  ]
}
